<mxfile host="65bd71144e" modified="2020-11-16T11:01:27.657Z" agent="5.0 (Windows NT 10.0; Win64; x64) AppleWebKit/537.36 (KHTML, like Gecko) Code/1.51.1 Chrome/83.0.4103.122 Electron/9.3.3 Safari/537.36" version="13.6.5" etag="5I3nr2u9hRAjKyS-3dw4">
    <diagram id="BPb8ycpB2pJ3qS32sPQm" name="Overview">
        <mxGraphModel dx="557" dy="395" grid="1" gridSize="10" guides="1" tooltips="1" connect="1" arrows="1" fold="1" page="1" pageScale="1" pageWidth="1169" pageHeight="827" math="0" shadow="0">
            <root>
                <mxCell id="0"/>
                <mxCell id="1" parent="0"/>
                <mxCell id="24" value="" style="endArrow=classic;html=1;" edge="1" parent="1" source="3" target="16">
                    <mxGeometry width="50" height="50" relative="1" as="geometry">
                        <mxPoint x="470" y="410" as="sourcePoint"/>
                        <mxPoint x="520" y="360" as="targetPoint"/>
                    </mxGeometry>
                </mxCell>
                <mxCell id="42" value="" style="rounded=0;whiteSpace=wrap;html=1;strokeColor=none;" vertex="1" parent="1">
                    <mxGeometry x="490" y="438" width="4" height="4" as="geometry"/>
                </mxCell>
                <mxCell id="3" value="Tekek Client" style="ellipse;whiteSpace=wrap;html=1;" vertex="1" parent="1">
                    <mxGeometry x="320" y="400" width="120" height="80" as="geometry"/>
                </mxCell>
                <mxCell id="4" value="Logging" style="ellipse;whiteSpace=wrap;html=1;" vertex="1" parent="1">
                    <mxGeometry x="520" y="200" width="120" height="80" as="geometry"/>
                </mxCell>
                <mxCell id="11" value="" style="endArrow=none;html=1;startArrow=classic;startFill=1;" edge="1" parent="1" source="4" target="22">
                    <mxGeometry width="50" height="50" relative="1" as="geometry">
                        <mxPoint x="670" y="390" as="sourcePoint"/>
                        <mxPoint x="733.2414107351069" y="365.1341170750594" as="targetPoint"/>
                    </mxGeometry>
                </mxCell>
                <mxCell id="12" value="" style="endArrow=none;html=1;startArrow=classic;startFill=1;" edge="1" parent="1" source="4" target="21">
                    <mxGeometry width="50" height="50" relative="1" as="geometry">
                        <mxPoint x="670" y="390" as="sourcePoint"/>
                        <mxPoint x="724.9866242807836" y="320.3296390870736" as="targetPoint"/>
                    </mxGeometry>
                </mxCell>
                <mxCell id="13" value="" style="endArrow=none;html=1;startArrow=classic;startFill=1;" edge="1" parent="1" source="4" target="20">
                    <mxGeometry width="50" height="50" relative="1" as="geometry">
                        <mxPoint x="670" y="390" as="sourcePoint"/>
                        <mxPoint x="720" y="280" as="targetPoint"/>
                    </mxGeometry>
                </mxCell>
                <mxCell id="14" value="" style="endArrow=none;html=1;startArrow=classic;startFill=1;" edge="1" parent="1" source="4" target="19">
                    <mxGeometry width="50" height="50" relative="1" as="geometry">
                        <mxPoint x="670" y="390" as="sourcePoint"/>
                        <mxPoint x="724.9866242807836" y="239.6703609129264" as="targetPoint"/>
                    </mxGeometry>
                </mxCell>
                <mxCell id="15" value="" style="endArrow=none;html=1;startArrow=classic;startFill=1;" edge="1" parent="1" source="4" target="18">
                    <mxGeometry width="50" height="50" relative="1" as="geometry">
                        <mxPoint x="670" y="390" as="sourcePoint"/>
                        <mxPoint x="733.2414107351069" y="194.8658829249406" as="targetPoint"/>
                    </mxGeometry>
                </mxCell>
                <mxCell id="16" value="Event" style="ellipse;whiteSpace=wrap;html=1;" vertex="1" parent="1">
                    <mxGeometry x="520" y="400" width="120" height="80" as="geometry"/>
                </mxCell>
                <mxCell id="18" value="DEBUG" style="shape=process;whiteSpace=wrap;html=1;backgroundOutline=1;rounded=1;" vertex="1" parent="1">
                    <mxGeometry x="760" y="120" width="80" height="40" as="geometry"/>
                </mxCell>
                <mxCell id="19" value="INFO" style="shape=process;whiteSpace=wrap;html=1;backgroundOutline=1;rounded=1;" vertex="1" parent="1">
                    <mxGeometry x="760" y="170" width="80" height="40" as="geometry"/>
                </mxCell>
                <mxCell id="20" value="WARNING" style="shape=process;whiteSpace=wrap;html=1;backgroundOutline=1;rounded=1;" vertex="1" parent="1">
                    <mxGeometry x="760" y="220" width="80" height="40" as="geometry"/>
                </mxCell>
                <mxCell id="21" value="ERROR" style="shape=process;whiteSpace=wrap;html=1;backgroundOutline=1;rounded=1;" vertex="1" parent="1">
                    <mxGeometry x="760" y="270" width="80" height="40" as="geometry"/>
                </mxCell>
                <mxCell id="22" value="CRITICAL" style="shape=process;whiteSpace=wrap;html=1;backgroundOutline=1;rounded=1;" vertex="1" parent="1">
                    <mxGeometry x="760" y="320" width="80" height="40" as="geometry"/>
                </mxCell>
                <mxCell id="23" value="" style="endArrow=classic;html=1;" edge="1" parent="1" source="3" target="4">
                    <mxGeometry width="50" height="50" relative="1" as="geometry">
                        <mxPoint x="470" y="410" as="sourcePoint"/>
                        <mxPoint x="520" y="360" as="targetPoint"/>
                    </mxGeometry>
                </mxCell>
                <mxCell id="26" value="Issue Raiser" style="ellipse;whiteSpace=wrap;html=1;" vertex="1" parent="1">
                    <mxGeometry x="520" y="520" width="120" height="80" as="geometry"/>
                </mxCell>
                <mxCell id="39" value="" style="endArrow=classic;html=1;" edge="1" parent="1" source="3" target="26">
                    <mxGeometry width="50" height="50" relative="1" as="geometry">
                        <mxPoint x="410" y="570" as="sourcePoint"/>
                        <mxPoint x="460" y="520" as="targetPoint"/>
                    </mxGeometry>
                </mxCell>
                <mxCell id="40" value="" style="endArrow=classic;html=1;" edge="1" parent="1" source="16" target="4">
                    <mxGeometry width="50" height="50" relative="1" as="geometry">
                        <mxPoint x="660" y="430" as="sourcePoint"/>
                        <mxPoint x="660" y="390" as="targetPoint"/>
                    </mxGeometry>
                </mxCell>
                <mxCell id="46" value="may contain" style="edgeLabel;html=1;align=center;verticalAlign=middle;resizable=0;points=[];" vertex="1" connectable="0" parent="40">
                    <mxGeometry x="0.1964" relative="1" as="geometry">
                        <mxPoint y="7.62" as="offset"/>
                    </mxGeometry>
                </mxCell>
                <mxCell id="41" value="" style="endArrow=classic;html=1;" edge="1" parent="1" source="26" target="4">
                    <mxGeometry width="50" height="50" relative="1" as="geometry">
                        <mxPoint x="660" y="430" as="sourcePoint"/>
                        <mxPoint x="660" y="390" as="targetPoint"/>
                        <Array as="points">
                            <mxPoint x="500" y="480"/>
                            <mxPoint x="500" y="450"/>
                            <mxPoint x="490" y="440"/>
                            <mxPoint x="500" y="430"/>
                            <mxPoint x="500" y="400"/>
                        </Array>
                    </mxGeometry>
                </mxCell>
                <mxCell id="45" value="may contain" style="edgeLabel;html=1;align=center;verticalAlign=middle;resizable=0;points=[];" vertex="1" connectable="0" parent="41">
                    <mxGeometry x="-0.4472" y="1" relative="1" as="geometry">
                        <mxPoint x="10.999999999999998" y="-85.38" as="offset"/>
                    </mxGeometry>
                </mxCell>
                <mxCell id="43" value="" style="endArrow=classic;html=1;" edge="1" parent="1" source="26" target="16">
                    <mxGeometry width="50" height="50" relative="1" as="geometry">
                        <mxPoint x="660" y="430" as="sourcePoint"/>
                        <mxPoint x="580" y="440" as="targetPoint"/>
                    </mxGeometry>
                </mxCell>
                <mxCell id="44" value="may contain" style="edgeLabel;html=1;align=center;verticalAlign=middle;resizable=0;points=[];" vertex="1" connectable="0" parent="43">
                    <mxGeometry x="0.3155" y="1" relative="1" as="geometry">
                        <mxPoint x="1" y="10.86" as="offset"/>
                    </mxGeometry>
                </mxCell>
                <mxCell id="47" value="New Event" style="shape=process;whiteSpace=wrap;html=1;backgroundOutline=1;rounded=1;" vertex="1" parent="1">
                    <mxGeometry x="760" y="370" width="80" height="40" as="geometry"/>
                </mxCell>
                <mxCell id="48" value="Finish Event" style="shape=process;whiteSpace=wrap;html=1;backgroundOutline=1;rounded=1;" vertex="1" parent="1">
                    <mxGeometry x="760" y="420" width="80" height="40" as="geometry"/>
                </mxCell>
                <mxCell id="49" value="Cancel Event" style="shape=process;whiteSpace=wrap;html=1;backgroundOutline=1;rounded=1;" vertex="1" parent="1">
                    <mxGeometry x="760" y="470" width="80" height="40" as="geometry"/>
                </mxCell>
                <mxCell id="50" value="" style="endArrow=none;html=1;startArrow=classic;startFill=1;" edge="1" parent="1" source="16" target="47">
                    <mxGeometry width="50" height="50" relative="1" as="geometry">
                        <mxPoint x="620" y="450" as="sourcePoint"/>
                        <mxPoint x="670" y="400" as="targetPoint"/>
                    </mxGeometry>
                </mxCell>
                <mxCell id="51" value="" style="endArrow=none;html=1;startArrow=classic;startFill=1;" edge="1" parent="1" source="16" target="48">
                    <mxGeometry width="50" height="50" relative="1" as="geometry">
                        <mxPoint x="620" y="450" as="sourcePoint"/>
                        <mxPoint x="670" y="400" as="targetPoint"/>
                    </mxGeometry>
                </mxCell>
                <mxCell id="52" value="" style="endArrow=none;html=1;startArrow=classic;startFill=1;" edge="1" parent="1" source="16" target="49">
                    <mxGeometry width="50" height="50" relative="1" as="geometry">
                        <mxPoint x="620" y="450" as="sourcePoint"/>
                        <mxPoint x="670" y="400" as="targetPoint"/>
                    </mxGeometry>
                </mxCell>
                <mxCell id="53" value="Raise Issue" style="shape=process;whiteSpace=wrap;html=1;backgroundOutline=1;rounded=1;" vertex="1" parent="1">
                    <mxGeometry x="760" y="540" width="80" height="40" as="geometry"/>
                </mxCell>
                <mxCell id="56" value="" style="endArrow=none;html=1;endFill=0;startArrow=classic;startFill=1;" edge="1" parent="1" source="26" target="53">
                    <mxGeometry width="50" height="50" relative="1" as="geometry">
                        <mxPoint x="780" y="660" as="sourcePoint"/>
                        <mxPoint x="830" y="610" as="targetPoint"/>
                    </mxGeometry>
                </mxCell>
                <mxCell id="57" value="Synchronize" style="shape=process;whiteSpace=wrap;html=1;backgroundOutline=1;rounded=1;size=0;" vertex="1" parent="1">
                    <mxGeometry x="200" y="330" width="80" height="40" as="geometry"/>
                </mxCell>
                <mxCell id="58" value="Reset&lt;br&gt;Timer" style="shape=process;whiteSpace=wrap;html=1;backgroundOutline=1;rounded=1;size=0;" vertex="1" parent="1">
                    <mxGeometry x="200" y="380" width="80" height="40" as="geometry"/>
                </mxCell>
                <mxCell id="63" value="" style="endArrow=none;html=1;" edge="1" parent="1" source="58" target="3">
                    <mxGeometry width="50" height="50" relative="1" as="geometry">
                        <mxPoint x="280" y="530" as="sourcePoint"/>
                        <mxPoint x="330" y="480" as="targetPoint"/>
                    </mxGeometry>
                </mxCell>
                <mxCell id="64" value="" style="endArrow=none;html=1;" edge="1" parent="1" source="57" target="3">
                    <mxGeometry width="50" height="50" relative="1" as="geometry">
                        <mxPoint x="280" y="530" as="sourcePoint"/>
                        <mxPoint x="330" y="480" as="targetPoint"/>
                    </mxGeometry>
                </mxCell>
                <mxCell id="68" value="" style="endArrow=none;dashed=1;html=1;dashPattern=1 3;strokeWidth=2;entryX=0.5;entryY=0;entryDx=0;entryDy=0;exitX=0.5;exitY=1;exitDx=0;exitDy=0;" edge="1" parent="1" source="69" target="69">
                    <mxGeometry width="50" height="50" relative="1" as="geometry">
                        <mxPoint x="960" y="360" as="sourcePoint"/>
                        <mxPoint x="960" y="320" as="targetPoint"/>
                        <Array as="points">
                            <mxPoint x="920" y="710"/>
                            <mxPoint x="740" y="710"/>
                            <mxPoint x="740" y="100"/>
                            <mxPoint x="920" y="100"/>
                        </Array>
                    </mxGeometry>
                </mxCell>
                <mxCell id="69" value="Backend Facing" style="rounded=0;whiteSpace=wrap;html=1;" vertex="1" parent="1">
                    <mxGeometry x="880" y="320" width="80" height="40" as="geometry"/>
                </mxCell>
                <mxCell id="70" value="" style="endArrow=none;dashed=1;html=1;dashPattern=1 3;strokeWidth=2;entryX=0.5;entryY=1;entryDx=0;entryDy=0;exitX=0.5;exitY=0;exitDx=0;exitDy=0;" edge="1" parent="1" source="71" target="71">
                    <mxGeometry width="50" height="50" relative="1" as="geometry">
                        <mxPoint x="140" y="560" as="sourcePoint"/>
                        <mxPoint x="190" y="510" as="targetPoint"/>
                        <Array as="points">
                            <mxPoint x="120" y="310"/>
                            <mxPoint x="300" y="310"/>
                            <mxPoint x="300" y="540"/>
                            <mxPoint x="120" y="540"/>
                        </Array>
                    </mxGeometry>
                </mxCell>
                <mxCell id="71" value="Server&lt;br&gt;Facing" style="rounded=0;whiteSpace=wrap;html=1;" vertex="1" parent="1">
                    <mxGeometry x="80" y="400" width="80" height="40" as="geometry"/>
                </mxCell>
                <mxCell id="72" value="Set Name" style="shape=process;whiteSpace=wrap;html=1;backgroundOutline=1;rounded=1;" vertex="1" parent="1">
                    <mxGeometry x="760" y="600" width="80" height="40" as="geometry"/>
                </mxCell>
                <mxCell id="73" value="Set Timer" style="shape=process;whiteSpace=wrap;html=1;backgroundOutline=1;rounded=1;" vertex="1" parent="1">
                    <mxGeometry x="760" y="650" width="80" height="40" as="geometry"/>
                </mxCell>
                <mxCell id="75" value="Set&lt;br&gt;Timer" style="shape=process;whiteSpace=wrap;html=1;backgroundOutline=1;rounded=1;size=0;" vertex="1" parent="1">
                    <mxGeometry x="200" y="430" width="80" height="40" as="geometry"/>
                </mxCell>
                <mxCell id="76" value="" style="endArrow=none;html=1;" edge="1" parent="1" source="75" target="3">
                    <mxGeometry width="50" height="50" relative="1" as="geometry">
                        <mxPoint x="320" y="540" as="sourcePoint"/>
                        <mxPoint x="370" y="490" as="targetPoint"/>
                    </mxGeometry>
                </mxCell>
                <mxCell id="77" value="Set&lt;br&gt;UUID" style="shape=process;whiteSpace=wrap;html=1;backgroundOutline=1;rounded=1;" vertex="1" parent="1">
                    <mxGeometry x="200" y="480" width="80" height="40" as="geometry"/>
                </mxCell>
                <mxCell id="78" value="" style="endArrow=none;html=1;" edge="1" parent="1" source="77" target="3">
                    <mxGeometry width="50" height="50" relative="1" as="geometry">
                        <mxPoint x="320" y="540" as="sourcePoint"/>
                        <mxPoint x="370" y="490" as="targetPoint"/>
                    </mxGeometry>
                </mxCell>
                <mxCell id="79" value="" style="endArrow=none;html=1;endFill=0;startArrow=classic;startFill=1;" edge="1" parent="1" source="3" target="72">
                    <mxGeometry width="50" height="50" relative="1" as="geometry">
                        <mxPoint x="780" y="660" as="sourcePoint"/>
                        <mxPoint x="830" y="610" as="targetPoint"/>
                        <Array as="points">
                            <mxPoint x="520" y="620"/>
                        </Array>
                    </mxGeometry>
                </mxCell>
                <mxCell id="80" value="" style="endArrow=none;html=1;endFill=0;startArrow=classic;startFill=1;" edge="1" parent="1" source="3" target="73">
                    <mxGeometry width="50" height="50" relative="1" as="geometry">
                        <mxPoint x="780" y="660" as="sourcePoint"/>
                        <mxPoint x="830" y="610" as="targetPoint"/>
                        <Array as="points">
                            <mxPoint x="480" y="670"/>
                        </Array>
                    </mxGeometry>
                </mxCell>
            </root>
        </mxGraphModel>
    </diagram>
</mxfile>